# xmcd
#
# Track frame offsets:
#	182
#	11160
#	21262
#	39417
#	54477
#	66000
#	72227
#	87595
#	101742
#	112385
#	118895
#	129357
#	133925
#	144957
#	151002
#	165467
#	175575
#	186565
#	194590
#	215067
#	228590
#
# Disc length: 3254
#
# Revision: 1
# Processed by: cddbd v1.5.1PL0 Copyright (c) Steve Scherf et al.
# Submitted via: CDex 1.51
# Normalized: r0:TDELIM( - ),TSWAP
#
DISCID=3b0cb415
DTITLE=Tammy Wynette and George Jones - Country Stars
DYEAR=1991
DGENRE=Country
TTITLE0=George Jones - No Show Jones
TTITLE1=George Jones - The Race Is On
TTITLE2=George Jones - Bartender Blues
TTITLE3=George Jones - I Always Get Lucky With You
TTITLE4=George Jones - She's My Rock
TTITLE5=George Jones - Chicken Reel
TTITLE6=George Jones - He Stopped Loving Her Today
TTITLE7=George Jones - Who's Gonna Fill Their Shoes
TTITLE8=George Jones - The One I Loved Back Then
TTITLE9=Tammy Wynette - Welcome To My World
TTITLE10=Tammy Wynette - Another Chance
TTITLE11=Tammy Wynette - Your Good Girl's Gonna Go Bad
TTITLE12=Tammy Wynette - D.I.V.O.R.C.E.
TTITLE13=Tammy Wynette - Singing My Song
TTITLE14=Tammy Wynette - 'Til I Can Make It On My Own
TTITLE15=Tammy Wynette - Womanhood
TTITLE16=Tammy Wynette - Fairy Tales
TTITLE17=Tammy Wynette - When The Grass Grows Over Me
TTITLE18=Tammy Wynette - Gospel Medley
TTITLE19=Tammy Wynette - Stand By Your Man
TTITLE20=Tammy Wynette - Cryin' In The Rain
EXTD=YEAR: 1991
EXTT0=
EXTT1=
EXTT2=
EXTT3=
EXTT4=
EXTT5=
EXTT6=
EXTT7=
EXTT8=
EXTT9=
EXTT10=
EXTT11=
EXTT12=
EXTT13=
EXTT14=
EXTT15=
EXTT16=
EXTT17=
EXTT18=
EXTT19=
EXTT20=
PLAYORDER=
